<svg width="15" height="12" viewBox="0 0 15 12" fill="none" xmlns="http://www.w3.org/2000/svg">
<path fill-rule="evenodd" clip-rule="evenodd" d="M7.5 1.09091C5.80168 1.09091 3.48846 1.2365 2.01951 1.34356C1.53167 1.37911 1.15385 1.76529 1.15385 2.23696V2.76996L7.03304 5.85802C7.32344 6.01056 7.67656 6.01056 7.96697 5.85802L13.8462 2.76996V2.23696C13.8462 1.76529 13.4683 1.37911 12.9805 1.34356C11.5115 1.2365 9.19833 1.09091 7.5 1.09091ZM13.8462 4.01792L8.52732 6.81165C7.88843 7.14723 7.11157 7.14723 6.47268 6.81165L1.15385 4.01792V9.76304C1.15385 10.2347 1.53167 10.6209 2.01951 10.6564C3.48846 10.7635 5.80168 10.9091 7.5 10.9091C9.19833 10.9091 11.5115 10.7635 12.9805 10.6564C13.4683 10.6209 13.8462 10.2347 13.8462 9.76304V4.01792ZM1.93083 0.255877C3.40066 0.148756 5.75301 0 7.5 0C9.24699 0 11.5993 0.148756 13.0692 0.255877C14.1676 0.335933 15 1.20441 15 2.23696V9.76304C15 10.7956 14.1676 11.6641 13.0692 11.7441C11.5993 11.8512 9.247 12 7.5 12C5.75301 12 3.40066 11.8512 1.93083 11.7441C0.832368 11.6641 0 10.7956 0 9.76304V2.23696C0 1.20441 0.832367 0.335933 1.93083 0.255877Z" fill="#3D3D3D"/>
</svg>
